<?xml version="1.0" encoding="utf-8"?>
<!-- Generator: Adobe Illustrator 22.1.0, SVG Export Plug-In . SVG Version: 6.00 Build 0)  -->
<svg version="1.1" id="Layer_1" xmlns="http://www.w3.org/2000/svg" xmlns:xlink="http://www.w3.org/1999/xlink" x="0px" y="0px"
	 viewBox="0 0 143.4 32.4" style="enable-background:new 0 0 143.4 32.4;" xml:space="preserve">
<style type="text/css">
	.st0{fill:#FFFFFF;}
	.st1{fill:#B7F9EC;}
</style>
<g>
	<g>
		<path class="st0" d="M36.8,12.5c-0.3-0.3-0.7-0.6-1.1-0.7c-0.4-0.2-0.9-0.3-1.4-0.3c-1.6,0-3,0.6-4.4,1.8
			c-0.6-1.1-1.4-1.7-2.6-1.7c-1,0-1.8,0.5-2.4,1.5c-0.1,0.1-0.2,0.3-0.2,0.4c-0.1,0.1-0.1,0.3-0.1,0.5c0,0.2,0,0.4,0,0.7
			c0,0.3,0,0.6,0,1v12.7v0.6c0,0.9,0.3,1.7,0.8,2.3c0.5,0.6,1.2,0.9,2.1,0.9c0.8,0,1.5-0.3,2-0.8c0.5-0.6,0.8-1.3,0.8-2.3v-0.6v-8.7
			c0-0.9,0.1-1.6,0.3-2c0.2-0.4,0.5-0.6,1-0.6c0.3,0,0.7,0.1,1.1,0.4c0.5,0.3,0.9,0.5,1.1,0.6c0.2,0.1,0.5,0.1,0.9,0.1
			c0.9,0,1.7-0.3,2.4-1c0.7-0.6,1-1.4,1-2.4c0-0.5-0.1-0.9-0.3-1.4C37.4,13.1,37.2,12.8,36.8,12.5z"/>
		<path class="st0" d="M54.3,12.2H44.1c-0.8,0-1.5,0.2-2.1,0.7c-0.5,0.5-0.8,1.1-0.8,1.9c0,0.8,0.3,1.4,0.8,1.8
			c0.5,0.5,1.2,0.7,2.1,0.7h6.2L54.3,12.2z"/>
		<path class="st0" d="M18.1,2.3c-0.8,0-1.5,0.3-2,0.8c-0.5,0.6-0.8,1.3-0.8,2.3V6v7.2c-0.9-0.7-1.8-1.2-2.6-1.5
			c-0.9-0.3-1.9-0.5-3-0.5c-1.4,0-2.7,0.3-3.8,0.8c-1.2,0.5-2.2,1.3-3,2.2c-0.9,0.9-1.5,2-2,3.3C0.2,18.9,0,20.3,0,21.7
			c0,1.5,0.2,2.9,0.7,4.2c0.5,1.3,1.2,2.4,2,3.3c0.9,0.9,1.9,1.7,3.1,2.2c1.2,0.5,2.5,0.8,3.9,0.8c1.2,0,2.2-0.2,3.1-0.5
			c0.9-0.3,1.8-0.9,2.7-1.7c0.5,1.3,1.4,2,2.7,2c0.5,0,1-0.1,1.4-0.3c0.4-0.2,0.7-0.5,0.9-0.9c0.2-0.3,0.3-0.6,0.3-0.9
			c0.1-0.3,0.1-0.8,0.1-1.5V6V5.4c0-0.9-0.3-1.7-0.8-2.3C19.6,2.6,18.9,2.3,18.1,2.3z M15,23.6c-0.3,0.6-0.6,1.1-1,1.5
			c-0.4,0.4-0.9,0.8-1.5,1c-0.6,0.3-1.2,0.4-1.8,0.4c-0.7,0-1.3-0.1-1.9-0.4c-0.6-0.3-1.1-0.6-1.5-1c-0.4-0.4-0.8-1-1-1.5
			C6,23,5.9,22.4,5.9,21.7c0-0.7,0.1-1.3,0.4-1.8c0.3-0.6,0.6-1.1,1-1.5c0.4-0.4,0.9-0.8,1.5-1C9.4,17.1,10,17,10.7,17
			c0.6,0,1.3,0.1,1.8,0.4c0.6,0.3,1.1,0.6,1.5,1c0.4,0.4,0.8,0.9,1,1.5c0.3,0.6,0.4,1.2,0.4,1.9C15.4,22.4,15.3,23,15,23.6z"/>
		<path class="st0" d="M75,27h-5.8l2.5-3.3l5.2-6.8c0.5-0.6,0.7-1.2,0.7-1.8c0-0.9-0.3-1.6-1-2.2c-0.6-0.5-1.3-0.7-2.2-0.8l0,0h-0.3
			h-0.7h-9.1c-0.8,0-1.5,0.2-2.1,0.7c-0.5,0.5-0.8,1.1-0.8,1.9c0,0.8,0.3,1.4,0.8,1.8c0.5,0.5,1.2,0.7,2.1,0.7h5.1l-2,2.6l0,0
			l-5.3,6.9c-0.3,0.3-0.5,0.6-0.6,0.9c-0.2,0.2-0.3,0.4-0.4,0.6c-0.1,0.2-0.1,0.3-0.2,0.5c0,0.2,0,0.3,0,0.5c0,0.5,0.1,1,0.4,1.5
			c0.3,0.5,0.7,0.8,1.1,1.1c0.3,0.1,0.6,0.2,0.8,0.3c0.2,0,0.5,0.1,0.8,0.1l0,0h0.1h0.9H75c0.8,0,1.5-0.2,2.1-0.7
			c0.5-0.5,0.8-1.1,0.8-1.9c0-0.8-0.3-1.4-0.8-1.8C76.5,27.3,75.8,27,75,27z"/>
		<path class="st0" d="M110.2,23.1c-0.4-0.7-0.9-1.2-1.6-1.4c-0.7-0.2-1.4-0.2-2.2,0.2c-0.3,0.1-0.5,0.3-0.7,0.5
			c-0.2,0.2-0.4,0.5-0.6,0.9c-0.3,0.6-0.7,1.1-1.1,1.5c-0.4,0.4-0.8,0.7-1.3,1c-1,0.5-2.1,0.6-3.2,0.3l6.5-7.9
			c0.6-0.7,0.9-1.4,1.1-1.9c0.1-0.5,0.1-1.1-0.2-1.6c-0.4-0.8-1-1.5-1.9-2.1c-0.8-0.5-1.7-0.9-2.8-1.1c-1-0.2-2.1-0.3-3.2-0.1
			c-1.1,0.1-2.2,0.5-3.2,1c-1.3,0.6-2.3,1.5-3.2,2.5c-0.9,1-1.5,2.2-1.9,3.5c-0.4,1.3-0.6,2.6-0.5,4c0.1,1.4,0.4,2.7,1.1,3.9
			c0.6,1.3,1.5,2.3,2.6,3.2c1.1,0.9,2.3,1.5,3.5,2c1.3,0.4,2.6,0.6,4,0.5c1.4-0.1,2.7-0.4,4-1c0.9-0.5,1.8-1,2.5-1.8
			c0.8-0.7,1.4-1.5,1.8-2.4c0.4-0.8,0.7-1.5,0.8-2.1C110.6,24.2,110.5,23.7,110.2,23.1z M96.2,23.2c-0.4-1.1-0.4-2.3,0-3.4
			c0.4-1.1,1.2-2,2.3-2.5c1-0.5,2-0.5,2.8-0.1L96.2,23.2z"/>
		<path class="st0" d="M54.8,27h-6.4l-4,5.2h10.4c0.8,0,1.5-0.2,2-0.7c0.5-0.5,0.8-1.1,0.8-1.9s-0.3-1.4-0.8-1.8
			C56.3,27.3,55.6,27,54.8,27z"/>
		<path class="st0" d="M84,2.4c-0.8,0-1.5,0.3-2,0.8c-0.5,0.6-0.8,1.3-0.8,2.3v0.6v22.3V29c0,0.9,0.3,1.7,0.8,2.3
			c0.5,0.6,1.2,0.9,2.1,0.9c0.9,0,1.6-0.3,2.1-0.9c0.5-0.6,0.7-1.4,0.7-2.5v-0.4V5.9V5.5c0-0.9-0.3-1.7-0.8-2.3
			C85.5,2.7,84.8,2.4,84,2.4z"/>
		<path class="st1" d="M63.7,4.9l-16.9,26c-1,1.5-2.9,1.9-4.4,0.9c-1.5-1-1.9-2.9-0.9-4.4c0.1-0.1,0.1-0.2,0.2-0.3L61.2,3.1
			c0.5-0.7,1.5-0.8,2.2-0.2C64,3.4,64.1,4.3,63.7,4.9z"/>
		<path class="st1" d="M48,1.6l-3.3,6.6c-0.6,1.2-2,1.6-3.1,1c-1.2-0.6-1.6-2-1-3.1c0.1-0.2,0.3-0.4,0.4-0.6l5.3-5.2
			c0.4-0.4,1.2-0.4,1.6,0C48.1,0.7,48.2,1.2,48,1.6z"/>
		<path class="st1" d="M75,3.6l-2,3.8c-0.4,0.7-1.3,1-2,0.6c-0.7-0.4-1-1.3-0.6-2c0.1-0.2,0.2-0.3,0.3-0.4l3.2-2.9
			c0.3-0.3,0.8-0.2,1,0.1C75.1,3,75.1,3.3,75,3.6z"/>
	</g>
	<g>
		<path class="st0" d="M116.6,21.5l2.7,6.3l2.7-6.3l2.7,6.3l2.4-6.3h0.8l-3.5,8.7h-0.6l-2.4-5.6l-2.4,5.6h-0.5l-3.8-8.7H116.6z"/>
		<path class="st0" d="M130,17.1c0.1,0,0.3,0,0.4,0.1c0.1,0,0.2,0.1,0.3,0.2c0.1,0.1,0.2,0.2,0.2,0.3c0.1,0.1,0.1,0.2,0.1,0.3
			c0,0.1,0,0.2-0.1,0.3c-0.1,0.1-0.1,0.2-0.2,0.3c-0.1,0.1-0.2,0.1-0.3,0.2s-0.2,0.1-0.4,0.1c-0.1,0-0.3,0-0.4-0.1s-0.2-0.1-0.3-0.2
			c-0.1-0.1-0.2-0.2-0.2-0.3c-0.1-0.1-0.1-0.2-0.1-0.3c0-0.1,0-0.2,0.1-0.3c0.1-0.1,0.1-0.2,0.2-0.3c0.1-0.1,0.2-0.1,0.3-0.2
			C129.7,17.1,129.9,17.1,130,17.1z M129.2,21.8l1.2-0.5h0.5v8.8h-1.7V21.8z"/>
		<path class="st0" d="M134.7,25l4.3-3.5h1.1l-3.9,3.1l4.8,5.5h-2.2l-4.1-4.7v4.7H133V17.5l1.2-0.5h0.5V25z"/>
		<path class="st0" d="M142.4,17.1c0.1,0,0.3,0,0.4,0.1c0.1,0,0.2,0.1,0.3,0.2c0.1,0.1,0.2,0.2,0.2,0.3c0.1,0.1,0.1,0.2,0.1,0.3
			c0,0.1,0,0.2-0.1,0.3c-0.1,0.1-0.1,0.2-0.2,0.3c-0.1,0.1-0.2,0.1-0.3,0.2s-0.2,0.1-0.4,0.1c-0.1,0-0.3,0-0.4-0.1s-0.2-0.1-0.3-0.2
			c-0.1-0.1-0.2-0.2-0.2-0.3c-0.1-0.1-0.1-0.2-0.1-0.3c0-0.1,0-0.2,0.1-0.3c0.1-0.1,0.1-0.2,0.2-0.3c0.1-0.1,0.2-0.1,0.3-0.2
			C142.1,17.1,142.2,17.1,142.4,17.1z M141.5,21.8l1.2-0.5h0.5v8.8h-1.7V21.8z"/>
	</g>
</g>
</svg>
