<?xml version="1.0" encoding="utf-8"?>
<!-- Generator: Adobe Illustrator 24.0.3, SVG Export Plug-In . SVG Version: 6.00 Build 0)  -->
<svg version="1.1" id="Layer_3" xmlns="http://www.w3.org/2000/svg" xmlns:xlink="http://www.w3.org/1999/xlink" x="0px" y="0px"
	 width="153.1px" height="32.4px" viewBox="0 0 153.1 32.4" style="enable-background:new 0 0 153.1 32.4;" xml:space="preserve">
<style type="text/css">
	.st0{fill:#FFFFFF;}
	.st1{fill:#B7F9EC;}
</style>
<g>
	<path class="st0" d="M18.1,2.3c-0.8,0-1.5,0.3-2,0.8c-0.5,0.6-0.8,1.3-0.8,2.3V6v7.2c-0.9-0.7-1.8-1.2-2.6-1.5
		c-0.9-0.3-1.9-0.5-3-0.5c-1.4,0-2.7,0.3-3.8,0.8c-1.2,0.5-2.2,1.3-3.1,2.2c-0.9,0.9-1.5,2-2,3.3C0.2,18.9,0,20.3,0,21.8
		c0,1.5,0.2,2.9,0.7,4.2c0.5,1.3,1.2,2.4,2,3.3c0.9,0.9,1.9,1.7,3.1,2.2c1.2,0.5,2.5,0.8,3.9,0.8c1.2,0,2.2-0.2,3.1-0.5
		c0.9-0.3,1.8-0.9,2.7-1.7c0.5,1.3,1.4,2,2.7,2c0.5,0,1-0.1,1.4-0.3c0.4-0.2,0.7-0.5,0.9-0.9c0.2-0.3,0.3-0.6,0.3-0.9
		c0.1-0.3,0.1-0.8,0.1-1.5V6V5.4c0-0.9-0.3-1.7-0.8-2.3C19.6,2.6,18.9,2.3,18.1,2.3z M15,23.6c-0.3,0.6-0.6,1.1-1,1.5
		c-0.4,0.4-0.9,0.8-1.5,1c-0.6,0.3-1.2,0.4-1.8,0.4c-0.7,0-1.3-0.1-1.9-0.4c-0.6-0.3-1.1-0.6-1.5-1c-0.4-0.4-0.8-1-1-1.5
		C6,23,5.9,22.4,5.9,21.7c0-0.7,0.1-1.3,0.4-1.8c0.3-0.6,0.6-1.1,1-1.5c0.4-0.4,0.9-0.8,1.5-1C9.4,17.1,10,17,10.7,17
		c0.6,0,1.3,0.1,1.8,0.4c0.6,0.3,1.1,0.6,1.5,1c0.4,0.4,0.8,0.9,1,1.5c0.3,0.6,0.4,1.2,0.4,1.9S15.3,23,15,23.6z"/>
	<path class="st0" d="M36.9,12.5c-0.3-0.3-0.7-0.6-1.1-0.7c-0.4-0.2-0.9-0.3-1.4-0.3c-1.6,0-3,0.6-4.4,1.8c-0.6-1.1-1.4-1.7-2.6-1.7
		c-1,0-1.9,0.5-2.4,1.5c-0.1,0.1-0.2,0.3-0.2,0.4c-0.1,0.1-0.1,0.3-0.1,0.5c0,0.2,0,0.4,0,0.7c0,0.3,0,0.6,0,1v12.8v0.6
		c0,0.9,0.3,1.7,0.8,2.3c0.5,0.6,1.2,0.9,2.1,0.9c0.8,0,1.5-0.3,2-0.8c0.5-0.6,0.8-1.3,0.8-2.3v-0.6v-8.7c0-0.9,0.1-1.6,0.3-2
		c0.2-0.4,0.5-0.6,1-0.6c0.3,0,0.7,0.1,1.1,0.4c0.5,0.3,0.9,0.5,1.1,0.6c0.2,0.1,0.5,0.1,0.9,0.1c0.9,0,1.7-0.3,2.4-1
		c0.7-0.6,1-1.4,1-2.4c0-0.5-0.1-0.9-0.3-1.4C37.5,13.2,37.2,12.8,36.9,12.5z"/>
	<path class="st0" d="M110.3,23.2c-0.4-0.7-0.9-1.2-1.6-1.4c-0.7-0.2-1.4-0.2-2.2,0.2c-0.3,0.1-0.5,0.3-0.7,0.5
		c-0.2,0.2-0.4,0.5-0.6,0.9c-0.3,0.6-0.7,1.1-1.1,1.5c-0.4,0.4-0.8,0.7-1.3,1c-1,0.5-2.1,0.6-3.2,0.3l6.6-7.9
		c0.6-0.7,0.9-1.4,1.1-1.9c0.1-0.5,0.1-1.1-0.2-1.6c-0.4-0.8-1-1.5-1.9-2.1c-0.8-0.5-1.7-0.9-2.8-1.1c-1-0.2-2.1-0.3-3.2-0.1
		c-1.1,0.1-2.2,0.5-3.2,1c-1.3,0.6-2.3,1.5-3.2,2.5c-0.9,1-1.5,2.2-1.9,3.5c-0.4,1.3-0.6,2.6-0.5,4c0.1,1.4,0.4,2.7,1.1,4
		c0.6,1.3,1.5,2.3,2.6,3.2c1.1,0.9,2.3,1.5,3.5,2c1.3,0.4,2.6,0.6,4,0.5c1.4-0.1,2.7-0.4,4-1c0.9-0.5,1.8-1,2.5-1.8
		c0.8-0.7,1.4-1.5,1.8-2.4c0.4-0.8,0.7-1.5,0.8-2.1C110.7,24.3,110.6,23.7,110.3,23.2z M96.3,23.2c-0.4-1.1-0.4-2.3,0-3.4
		c0.4-1.1,1.2-2,2.3-2.5c1-0.5,2-0.5,2.8-0.1L96.3,23.2z"/>
	<path class="st0" d="M75.1,27.1h-5.8l2.5-3.3l5.2-6.8c0.5-0.6,0.7-1.2,0.7-1.8c0-0.9-0.3-1.6-1-2.2c-0.6-0.5-1.3-0.7-2.2-0.8l0,0
		h-0.3h-0.7h-9.1c-0.8,0-1.5,0.2-2.1,0.7c-0.5,0.5-0.8,1.1-0.8,1.9c0,0.8,0.3,1.4,0.8,1.8c0.5,0.5,1.2,0.7,2.1,0.7h5.1l-2,2.6l0,0
		l-5.3,6.9c-0.3,0.3-0.5,0.6-0.6,0.9c-0.2,0.2-0.3,0.4-0.4,0.6c-0.1,0.2-0.1,0.3-0.2,0.5c0,0.2,0,0.3,0,0.5c0,0.5,0.1,1,0.4,1.5
		c0.3,0.5,0.7,0.9,1.1,1.1c0.3,0.1,0.6,0.2,0.8,0.3c0.2,0,0.5,0.1,0.8,0.1l0,0h0.1h0.9h9.8c0.8,0,1.5-0.2,2.1-0.7
		c0.5-0.5,0.8-1.1,0.8-1.9s-0.3-1.4-0.8-1.8C76.6,27.3,75.9,27.1,75.1,27.1z"/>
	<path class="st0" d="M84.1,2.4c-0.8,0-1.5,0.3-2,0.8c-0.5,0.6-0.8,1.3-0.8,2.3v0.6v22.3v0.6c0,0.9,0.3,1.7,0.8,2.3
		c0.5,0.6,1.2,0.9,2.1,0.9c0.9,0,1.6-0.3,2.1-0.9c0.5-0.6,0.7-1.4,0.7-2.5v-0.4V5.9V5.5c0-0.9-0.3-1.7-0.8-2.3
		C85.6,2.7,84.9,2.4,84.1,2.4z"/>
	<path class="st0" d="M52.6,12.2l-3.7,4.5l-0.5,0.7h-4.2c-0.9,0-1.6-0.3-2.1-0.7c-0.5-0.5-0.8-1.1-0.8-1.8c0-0.8,0.3-1.4,0.8-1.9
		c0.5-0.5,1.2-0.7,2.1-0.7H52.6z"/>
	<path class="st0" d="M57.7,29.6c0,0.8-0.3,1.4-0.8,1.9c-0.5,0.5-1.2,0.7-2.1,0.7h-7.7c0.2-0.2,0.4-0.4,0.5-0.7l2.5-3.9l0.4-0.6h4.2
		c0.9,0,1.6,0.3,2.1,0.7C57.4,28.2,57.7,28.9,57.7,29.6z"/>
	<g>
		<g>
			<path class="st1" d="M63.7,4.9L49.4,27L46.8,31c-0.4,0.6-0.9,1-1.6,1.2c-0.3,0.1-0.7,0.2-1.1,0.2c-0.6,0-1.2-0.2-1.7-0.5
				c-1.5-1-1.9-2.9-0.9-4.4c0.1-0.1,0.1-0.2,0.2-0.3l8-9.9l4.2-5.2l7.3-9c0.3-0.4,0.7-0.6,1.2-0.6c0.3,0,0.7,0.1,1,0.3
				C64,3.4,64.2,4.3,63.7,4.9z"/>
		</g>
	</g>
	<path class="st1" d="M48,1.7l-3.3,6.6c-0.6,1.2-2,1.6-3.2,1c-1.2-0.6-1.6-2-1-3.2c0.1-0.2,0.3-0.4,0.4-0.6l5.3-5.2
		c0.4-0.4,1.2-0.4,1.6,0C48.2,0.7,48.2,1.2,48,1.7z"/>
	<path class="st1" d="M75.1,3.6l-2,3.8c-0.4,0.7-1.3,1-2,0.6c-0.7-0.4-1-1.3-0.6-2c0.1-0.2,0.2-0.3,0.3-0.4l3.2-2.9
		c0.3-0.3,0.8-0.2,1,0.1C75.2,3,75.2,3.3,75.1,3.6z"/>
</g>
<g>
	<path class="st0" d="M131,24.4c0.3-0.5,0.5-0.7,0.5-0.7c0.1-0.1,0.1-0.2,0.1-0.3c0-0.1,0-0.3-0.1-0.4c0-0.1-0.1-0.2-0.2-0.3
		c-0.1-0.1-0.1-0.1-0.2-0.1c-0.1,0-0.1,0-0.1,0.1c0,0.1-0.2,0.3-0.4,0.6c-0.3,0.4-0.6,0.8-0.9,1.3c-0.4,0.5-0.8,1-1.2,1.6
		c-0.4,0.6-0.9,1.1-1.3,1.6c-0.4,0.5-0.8,0.9-1.1,1.2c-0.3,0.3-0.6,0.5-0.7,0.5c-0.1,0-0.2-0.1-0.2-0.2c0-0.2,0-0.5,0.2-1
		c0.1-0.5,0.3-1,0.4-1.6s0.3-1.1,0.5-1.6s0.3-0.8,0.4-0.9c0.1-0.1,0.1-0.3,0-0.5c-0.1-0.2-0.2-0.4-0.4-0.6c-0.2-0.2-0.4-0.4-0.7-0.5
		c-0.3-0.1-0.5-0.2-0.8-0.2c-0.1,0-0.2,0.1-0.2,0.3c-0.1,0.2-0.3,0.5-0.5,0.9c-0.2,0.4-0.5,0.9-0.8,1.3c-0.3,0.5-0.6,1-0.9,1.5
		c-0.3,0.5-0.6,1-0.9,1.4c-0.3,0.4-0.6,0.8-0.8,1.1c-0.3,0.3-0.5,0.4-0.6,0.4c-0.1,0-0.2-0.1-0.2-0.2c0-0.1,0.1-0.5,0.3-1
		c0.2-0.5,0.4-1,0.6-1.6s0.4-1.1,0.7-1.6c0.2-0.5,0.4-0.8,0.5-0.9c0.1-0.1,0.1-0.3,0.1-0.5c-0.1-0.2-0.2-0.4-0.4-0.6
		c-0.2-0.2-0.4-0.4-0.7-0.5c-0.3-0.1-0.5-0.2-0.7-0.2c-0.1,0-0.2,0.2-0.4,0.5c-0.2,0.3-0.4,0.8-0.7,1.3s-0.5,1.1-0.8,1.8
		s-0.5,1.3-0.7,1.9c-0.2,0.6-0.4,1.2-0.6,1.7c-0.1,0.5-0.2,0.8-0.2,1.1c0,0.2,0.1,0.4,0.2,0.6c0.1,0.2,0.3,0.4,0.5,0.5
		c0.2,0.1,0.4,0.3,0.6,0.4c0.2,0.1,0.4,0.1,0.5,0.1c0.3,0,0.6-0.1,0.9-0.4c0.3-0.3,0.7-0.7,1.1-1.1c0.4-0.5,0.8-1,1.2-1.6
		c0.4-0.6,0.8-1.2,1.2-1.8c-0.2,0.7-0.4,1.4-0.5,2c-0.1,0.6-0.2,1-0.2,1.3c0,0.2,0.1,0.4,0.3,0.6c0.1,0.2,0.3,0.4,0.5,0.5
		c0.2,0.1,0.4,0.3,0.6,0.4c0.2,0.1,0.4,0.1,0.5,0.1c0.3,0,0.7-0.2,1.2-0.6c0.5-0.4,1-0.9,1.6-1.6c0.6-0.6,1.1-1.3,1.7-2.1
		c0.6-0.7,1.1-1.4,1.5-2.1C130.3,25.4,130.7,24.9,131,24.4z"/>
	<path class="st0" d="M135.2,21.7c0.1,0,0.2-0.1,0.4-0.3c0.2-0.2,0.4-0.5,0.6-0.8c0.2-0.3,0.5-0.7,0.8-1.1c0.3-0.4,0.6-0.8,1-1.1
		c0.1-0.1,0.2-0.3,0.1-0.5c-0.1-0.2-0.3-0.3-0.5-0.5s-0.4-0.3-0.7-0.4c-0.3-0.1-0.5-0.2-0.7-0.2c-0.2,0-0.4,0.2-0.6,0.5
		c-0.2,0.3-0.4,0.7-0.6,1.1c-0.2,0.4-0.4,0.8-0.5,1.3c-0.1,0.4-0.2,0.7-0.2,1c0,0.2,0.1,0.4,0.4,0.7
		C134.7,21.6,134.9,21.7,135.2,21.7z"/>
	<path class="st0" d="M151.7,26.5c-0.1,0-0.2,0-0.3,0.1c-0.1,0.1-0.3,0.3-0.6,0.7s-0.6,0.7-1,1.2c-0.4,0.4-0.7,0.8-1.1,1.1
		c-0.4,0.3-0.7,0.5-0.9,0.5c-0.1,0-0.2-0.1-0.2-0.2c0-0.2,0.1-0.5,0.3-1.1c0.2-0.6,0.4-1.1,0.7-1.8c0.3-0.6,0.5-1.2,0.7-1.8
		c0.2-0.5,0.4-0.9,0.5-1c0.1-0.1,0.1-0.3,0.1-0.5c-0.1-0.2-0.2-0.4-0.4-0.6c-0.2-0.2-0.4-0.4-0.7-0.5c-0.3-0.1-0.5-0.2-0.7-0.2
		c-0.1,0-0.2,0.2-0.4,0.5c-0.2,0.3-0.4,0.8-0.7,1.3s-0.5,1.1-0.8,1.8c-0.1,0.2-0.1,0.4-0.2,0.5c-0.1,0.1-0.3,0.4-0.6,0.8
		c-0.4,0.4-0.8,0.9-1.3,1.4c-0.5,0.5-1,0.9-1.5,1.3c-0.5,0.4-1,0.6-1.4,0.6c-0.3,0-0.5-0.1-0.7-0.3c-0.2-0.2-0.3-0.5-0.4-0.8
		c-0.1-0.3-0.2-0.6-0.2-0.9c0-0.3,0-0.5,0-0.7c0.6-0.1,1.3-0.3,1.9-0.6c0.6-0.3,1.3-0.6,1.8-0.9c0.6-0.4,1-0.7,1.3-1.1
		c0.3-0.4,0.5-0.8,0.5-1.2c0-0.3-0.1-0.6-0.2-0.8c-0.1-0.3-0.3-0.5-0.5-0.8c-0.2-0.2-0.4-0.4-0.6-0.6s-0.4-0.2-0.6-0.2
		c-0.5,0-1.1,0.3-1.8,0.9c-0.7,0.6-1.4,1.3-2.1,2.2c0.3-0.7,0.6-1.4,0.9-2c0.3-0.7,0.6-1.3,0.9-1.8c0.3-0.6,0.6-1,0.8-1.5
		c0.2-0.4,0.5-0.7,0.7-0.9c0.1-0.1,0.1-0.3,0.1-0.5c-0.1-0.2-0.2-0.4-0.4-0.6c-0.2-0.2-0.4-0.3-0.6-0.5c-0.3-0.1-0.5-0.2-0.7-0.2
		c-0.2,0-0.4,0.3-0.8,0.9c-0.4,0.6-0.8,1.4-1.3,2.3c-0.5,0.9-1,2-1.5,3.1c-0.5,1.1-1,2.2-1.4,3.3c0,0.1-0.1,0.2-0.1,0.3
		c-0.1,0.1-0.3,0.3-0.5,0.6c-0.3,0.4-0.6,0.7-1,1.2c-0.4,0.4-0.7,0.8-1.1,1.1c-0.4,0.3-0.7,0.5-0.9,0.5c-0.1,0-0.2-0.1-0.2-0.2
		c0-0.2,0.1-0.5,0.3-1.1c0.2-0.6,0.4-1.1,0.7-1.8c0.3-0.6,0.5-1.2,0.7-1.8c0.2-0.5,0.4-0.9,0.5-1c0.1-0.1,0.1-0.3,0.1-0.5
		c-0.1-0.2-0.2-0.4-0.4-0.6c-0.2-0.2-0.4-0.4-0.7-0.5c-0.3-0.1-0.5-0.2-0.7-0.2c-0.1,0-0.2,0.2-0.4,0.5c-0.2,0.3-0.4,0.8-0.7,1.3
		c-0.2,0.5-0.5,1.1-0.8,1.8c-0.3,0.7-0.5,1.3-0.7,1.9c-0.2,0.6-0.4,1.2-0.6,1.7c-0.1,0.5-0.2,0.8-0.2,1.1c0,0.2,0.1,0.4,0.2,0.6
		c0.1,0.2,0.3,0.4,0.5,0.5c0.2,0.2,0.4,0.3,0.6,0.4c0.2,0.1,0.4,0.1,0.5,0.1c0.3,0,0.7-0.1,1-0.4c0.4-0.2,0.8-0.6,1.1-0.9
		c0.4-0.4,0.8-0.8,1.1-1.2c0.2-0.3,0.4-0.5,0.6-0.8c0,0,0,0.1,0,0.1c-0.3,0.8-0.4,1.3-0.4,1.6c0,0.2,0.1,0.4,0.2,0.5
		c0.1,0.2,0.3,0.4,0.5,0.5c0.2,0.2,0.4,0.3,0.6,0.4s0.4,0.2,0.5,0.2c0.2,0,0.3-0.1,0.3-0.4l0-0.2c0-0.2,0.1-0.4,0.2-0.7
		c0.1-0.3,0.2-0.7,0.4-1.2c0-0.1,0.1-0.2,0.1-0.3c0-0.1,0.1-0.2,0.1-0.3c0.1,0.2,0.2,0.5,0.4,0.9c0.2,0.3,0.4,0.7,0.6,1
		c0.3,0.3,0.6,0.6,1,0.8c0.4,0.2,0.8,0.3,1.3,0.3c0.3,0,0.7-0.1,1-0.4c0.4-0.2,0.7-0.6,1.1-0.9c0.4-0.4,0.8-0.8,1.1-1.2
		c0.2-0.3,0.4-0.6,0.6-0.8c-0.1,0.2-0.2,0.5-0.2,0.7c-0.1,0.5-0.2,0.8-0.2,1.1c0,0.2,0.1,0.4,0.2,0.6c0.1,0.2,0.3,0.4,0.5,0.5
		c0.2,0.2,0.4,0.3,0.6,0.4c0.2,0.1,0.4,0.1,0.5,0.1c0.3,0,0.7-0.1,1-0.4c0.4-0.2,0.8-0.6,1.1-0.9c0.4-0.4,0.8-0.8,1.1-1.2
		c0.4-0.4,0.7-0.9,1-1.3c0.3-0.4,0.5-0.7,0.7-1c0.2-0.3,0.3-0.4,0.3-0.5c0.1-0.1,0.1-0.3,0-0.4C151.9,26.6,151.8,26.5,151.7,26.5z
		 M140.8,25.2c0.4-0.5,0.7-0.9,1-1.2c0.3-0.4,0.6-0.6,0.9-0.8c0.3-0.2,0.5-0.3,0.7-0.3c0.1,0,0.2,0,0.2,0c0.1,0,0.1,0.1,0.1,0.3
		c0,0.3-0.1,0.6-0.3,0.9c-0.2,0.3-0.5,0.7-0.9,1c-0.4,0.3-0.8,0.6-1.3,0.9c-0.5,0.3-1.1,0.5-1.7,0.7C140,26.2,140.4,25.7,140.8,25.2
		z"/>
	<path class="st0" d="M153,17.9c-0.1-0.2-0.3-0.3-0.5-0.5s-0.4-0.3-0.7-0.4c-0.3-0.1-0.5-0.2-0.7-0.2c-0.2,0-0.4,0.2-0.6,0.5
		c-0.2,0.3-0.4,0.7-0.6,1.1c-0.2,0.4-0.4,0.8-0.5,1.3c-0.1,0.4-0.2,0.7-0.2,1c0,0.2,0.1,0.4,0.4,0.7c0.2,0.2,0.5,0.4,0.7,0.4
		c0.1,0,0.2-0.1,0.4-0.3c0.2-0.2,0.4-0.5,0.6-0.8c0.2-0.3,0.5-0.7,0.8-1.1c0.3-0.4,0.6-0.8,1-1.1C153.1,18.3,153.1,18.1,153,17.9z"
		/>
</g>
</svg>
