<?xml version="1.0" encoding="utf-8"?>
<!-- Generator: Adobe Illustrator 22.1.0, SVG Export Plug-In . SVG Version: 6.00 Build 0)  -->
<svg version="1.1" xmlns="http://www.w3.org/2000/svg" xmlns:xlink="http://www.w3.org/1999/xlink" x="0px" y="0px"
	 viewBox="0 0 145.2 33.8" style="enable-background:new 0 0 145.2 33.8;" xml:space="preserve">
<style type="text/css">
	.st0{opacity:0.1;}
	.st1{fill:#FFFFFF;}
	.st2{fill:#B7F9EC;}
</style>
<g id="Layer_2">
</g>
<g id="Layer_1">
	<g>
		<g class="st0">
			<polygon points="128.2,21.7 126.1,27.2 123.4,20.9 120.7,27.2 118.3,21.7 115.4,21.7 119.6,31.4 120.8,31.4 122.9,26.5 125,31.4 
				126.2,31.4 130.1,21.7 			"/>
			<path d="M132.4,17.7c-0.1-0.1-0.3-0.2-0.5-0.3c-0.4-0.1-0.8-0.1-1.1,0c-0.2,0.1-0.3,0.2-0.5,0.3c-0.1,0.1-0.2,0.3-0.3,0.4
				c-0.1,0.2-0.1,0.4-0.1,0.6c0,0.2,0,0.4,0.1,0.6c0.1,0.2,0.2,0.3,0.3,0.4c0.1,0.1,0.3,0.2,0.5,0.3c0.2,0.1,0.4,0.1,0.6,0.1
				c0.2,0,0.4,0,0.6-0.1c0.2-0.1,0.3-0.2,0.5-0.3c0.1-0.1,0.2-0.3,0.3-0.4c0.1-0.2,0.1-0.4,0.1-0.6c0-0.2,0-0.4-0.1-0.6
				C132.7,17.9,132.5,17.8,132.4,17.7z"/>
			<polygon points="130,22.2 130,31.3 132.7,31.3 132.7,21.5 131.7,21.5 			"/>
			<path d="M142.7,19.6c0.1,0.1,0.3,0.2,0.5,0.3c0.2,0.1,0.4,0.1,0.6,0.1c0.2,0,0.4,0,0.6-0.1c0.2-0.1,0.3-0.2,0.5-0.3
				c0.1-0.1,0.2-0.3,0.3-0.4c0.1-0.2,0.1-0.4,0.1-0.6c0-0.2,0-0.4-0.1-0.6c-0.1-0.2-0.2-0.3-0.3-0.4c-0.1-0.1-0.3-0.2-0.5-0.3
				c-0.4-0.1-0.8-0.1-1.1,0c-0.2,0.1-0.3,0.2-0.5,0.3c-0.1,0.1-0.2,0.3-0.3,0.4c-0.1,0.2-0.1,0.4-0.1,0.6c0,0.2,0,0.4,0.1,0.6
				C142.5,19.3,142.6,19.5,142.7,19.6z"/>
			<polygon points="142.4,22.2 142.4,30.1 138.3,25.4 142.9,21.7 140.2,21.7 136.5,24.6 136.5,17.3 135.6,17.3 133.8,17.9 
				133.8,31.3 136.5,31.3 136.5,27.4 139.9,31.3 142.4,31.3 143.5,31.3 145.1,31.3 145.1,21.5 144.1,21.5 			"/>
		</g>
		<g>
			<path class="st0" d="M38.3,13.9c-0.3-0.3-0.7-0.6-1.1-0.7c-0.4-0.2-0.9-0.3-1.4-0.3c-1.6,0-3,0.6-4.4,1.8
				C30.9,13.6,30,13,28.8,13c-1,0-1.8,0.5-2.4,1.5c-0.1,0.1-0.2,0.3-0.2,0.4c-0.1,0.1-0.1,0.3-0.1,0.5c0,0.2,0,0.4,0,0.7
				c0,0.3,0,0.6,0,1v12.7v0.6c0,0.9,0.3,1.7,0.8,2.3c0.5,0.6,1.2,0.9,2.1,0.9c0.8,0,1.5-0.3,2-0.8c0.5-0.6,0.8-1.3,0.8-2.3v-0.6
				v-8.7c0-0.9,0.1-1.6,0.3-2c0.2-0.4,0.5-0.6,1-0.6c0.3,0,0.7,0.1,1.1,0.4c0.5,0.3,0.9,0.5,1.1,0.6c0.2,0.1,0.5,0.1,0.9,0.1
				c0.9,0,1.7-0.3,2.4-1c0.7-0.6,1-1.4,1-2.4c0-0.5-0.1-0.9-0.3-1.4C38.9,14.6,38.7,14.2,38.3,13.9z"/>
			<path class="st0" d="M19.6,3.7c-0.8,0-1.5,0.3-2,0.8c-0.5,0.6-0.8,1.3-0.8,2.3v0.6v7.2c-0.9-0.7-1.8-1.2-2.6-1.5
				c-0.9-0.3-1.9-0.5-3-0.5c-1.4,0-2.7,0.3-3.8,0.8c-1.2,0.5-2.2,1.3-3,2.2c-0.9,0.9-1.5,2-2,3.3c-0.5,1.3-0.7,2.6-0.7,4.1
				c0,1.5,0.2,2.9,0.7,4.2c0.5,1.3,1.2,2.4,2,3.3c0.9,0.9,1.9,1.7,3.1,2.2c1.2,0.5,2.5,0.8,3.9,0.8c1.2,0,2.2-0.2,3.1-0.5
				c0.9-0.3,1.8-0.9,2.7-1.7c0.5,1.3,1.4,2,2.7,2c0.5,0,1-0.1,1.4-0.3c0.4-0.2,0.7-0.5,0.9-0.9c0.2-0.3,0.3-0.6,0.3-0.9
				c0.1-0.3,0.1-0.8,0.1-1.5V7.5V6.8c0-0.9-0.3-1.7-0.8-2.3C21.1,4,20.4,3.7,19.6,3.7z M16.5,25c-0.3,0.6-0.6,1.1-1,1.5
				c-0.4,0.4-0.9,0.8-1.5,1c-0.6,0.3-1.2,0.4-1.8,0.4c-0.7,0-1.3-0.1-1.9-0.4c-0.6-0.3-1.1-0.6-1.5-1c-0.4-0.4-0.8-1-1-1.5
				c-0.3-0.6-0.4-1.2-0.4-1.9c0-0.7,0.1-1.3,0.4-1.8c0.3-0.6,0.6-1.1,1-1.5c0.4-0.4,0.9-0.8,1.5-1c0.6-0.3,1.2-0.4,1.8-0.4
				c0.6,0,1.3,0.1,1.8,0.4c0.6,0.3,1.1,0.6,1.5,1c0.4,0.4,0.8,0.9,1,1.5c0.3,0.6,0.4,1.2,0.4,1.9S16.8,24.5,16.5,25z"/>
			<path class="st0" d="M111.7,24.6c-0.4-0.7-0.9-1.2-1.6-1.4c-0.7-0.2-1.4-0.2-2.2,0.2c-0.3,0.1-0.5,0.3-0.7,0.5
				c-0.2,0.2-0.4,0.5-0.6,0.9c-0.3,0.6-0.7,1.1-1.1,1.5c-0.4,0.4-0.8,0.7-1.3,1c-1,0.5-2.1,0.6-3.2,0.3l6.5-7.9
				c0.6-0.7,0.9-1.4,1.1-1.9c0.1-0.5,0.1-1.1-0.2-1.6c-0.4-0.8-1-1.5-1.9-2.1c-0.8-0.5-1.7-0.9-2.8-1.1c-1-0.2-2.1-0.3-3.2-0.1
				c-1.1,0.1-2.2,0.5-3.2,1c-1.3,0.6-2.3,1.5-3.2,2.5c-0.9,1-1.5,2.2-1.9,3.5c-0.4,1.3-0.6,2.6-0.5,4c0.1,1.4,0.4,2.7,1.1,3.9
				c0.6,1.3,1.5,2.3,2.6,3.2c1.1,0.9,2.3,1.5,3.5,2c1.3,0.4,2.6,0.6,4,0.5c1.4-0.1,2.7-0.4,4-1c0.9-0.5,1.8-1,2.5-1.8
				c0.8-0.7,1.4-1.5,1.8-2.4c0.4-0.8,0.7-1.5,0.8-2.1C112.1,25.7,112,25.1,111.7,24.6z M97.7,24.6c-0.4-1.1-0.4-2.3,0-3.4
				c0.4-1.1,1.2-2,2.3-2.5c1-0.5,2-0.5,2.8-0.1L97.7,24.6z"/>
			<path class="st0" d="M85.5,3.8c-0.8,0-1.5,0.3-2,0.8C83,5.2,82.7,6,82.7,7v0.6v22.3v0.6c0,0.9,0.3,1.7,0.8,2.3
				c0.5,0.6,1.2,0.9,2.1,0.9c0.9,0,1.6-0.3,2.1-0.9c0.5-0.6,0.7-1.4,0.7-2.5v-0.4V7.4V7c0-0.9-0.3-1.7-0.8-2.3
				C87,4.1,86.3,3.8,85.5,3.8z"/>
			<path class="st0" d="M56.3,28.4h-5.4L65.2,6.4c0.4-0.6,0.3-1.5-0.3-2c-0.7-0.5-1.6-0.4-2.2,0.2l-7.3,9h-9.7
				c-0.8,0-1.5,0.2-2.1,0.7c-0.5,0.5-0.8,1.1-0.8,1.9c0,0.8,0.3,1.4,0.8,1.8c0.5,0.5,1.2,0.7,2.1,0.7h5.6l-8,9.9
				c-0.1,0.1-0.1,0.2-0.2,0.3c-1,1.5-0.5,3.4,0.9,4.4c0.9,0.6,1.9,0.6,2.8,0.3h9.6c0.8,0,1.5-0.2,2-0.7c0.5-0.5,0.8-1.1,0.8-1.9
				c0-0.8-0.3-1.4-0.8-1.8C57.8,28.7,57.1,28.5,56.3,28.4z"/>
			<path class="st0" d="M76.5,28.5h-5.8l2.5-3.3l5.2-6.8c0.5-0.6,0.7-1.2,0.7-1.8c0-0.9-0.3-1.6-1-2.2c-0.6-0.5-1.3-0.7-2.2-0.8l0,0
				h-0.3h-0.7h-9.1c-0.8,0-1.5,0.2-2.1,0.7c-0.5,0.5-0.8,1.1-0.8,1.9c0,0.8,0.3,1.4,0.8,1.8c0.5,0.5,1.2,0.7,2.1,0.7H71l-2,2.6l0,0
				l-5.3,6.9c-0.3,0.3-0.5,0.6-0.6,0.9c-0.2,0.2-0.3,0.4-0.4,0.6c-0.1,0.2-0.1,0.3-0.2,0.5c0,0.2,0,0.3,0,0.5c0,0.5,0.1,1,0.4,1.5
				c0.3,0.5,0.7,0.8,1.1,1.1c0.3,0.1,0.6,0.2,0.8,0.3c0.2,0,0.5,0.1,0.8,0.1l0,0h0.1h0.9h9.7c0.8,0,1.5-0.2,2.1-0.7
				c0.5-0.5,0.8-1.1,0.8-1.9s-0.3-1.4-0.8-1.8C78,28.7,77.3,28.5,76.5,28.5z"/>
			<path class="st0" d="M49.3,1.8c-0.4-0.4-1.2-0.4-1.6,0L42.4,7c-0.2,0.2-0.3,0.4-0.4,0.6c-0.6,1.2-0.1,2.6,1,3.1
				c1.2,0.6,2.6,0.1,3.1-1l3.3-6.6C49.7,2.7,49.6,2.1,49.3,1.8z"/>
			<path class="st0" d="M72,9c0.7,0.4,1.6,0.1,2-0.6l2-3.8C76.2,4.3,76.2,4,76,3.8c-0.3-0.3-0.7-0.3-1-0.1l-3.2,2.9
				c-0.1,0.1-0.2,0.3-0.3,0.4C71,7.7,71.3,8.6,72,9z"/>
			<path class="st1" d="M36.8,12.5c-0.3-0.3-0.7-0.6-1.1-0.7c-0.4-0.2-0.9-0.3-1.4-0.3c-1.6,0-3,0.6-4.4,1.8
				c-0.6-1.1-1.4-1.7-2.6-1.7c-1,0-1.8,0.5-2.4,1.5c-0.1,0.1-0.2,0.3-0.2,0.4c-0.1,0.1-0.1,0.3-0.1,0.5c0,0.2,0,0.4,0,0.7
				c0,0.3,0,0.6,0,1v12.7v0.6c0,0.9,0.3,1.7,0.8,2.3c0.5,0.6,1.2,0.9,2.1,0.9c0.8,0,1.5-0.3,2-0.8c0.5-0.6,0.8-1.3,0.8-2.3v-0.6
				v-8.7c0-0.9,0.1-1.6,0.3-2c0.2-0.4,0.5-0.6,1-0.6c0.3,0,0.7,0.1,1.1,0.4c0.5,0.3,0.9,0.5,1.1,0.6c0.2,0.1,0.5,0.1,0.9,0.1
				c0.9,0,1.7-0.3,2.4-1c0.7-0.6,1-1.4,1-2.4c0-0.5-0.1-0.9-0.3-1.4C37.4,13.1,37.2,12.8,36.8,12.5z"/>
			<path class="st1" d="M54.3,12.2H44.1c-0.8,0-1.5,0.2-2.1,0.7c-0.5,0.5-0.8,1.1-0.8,1.9c0,0.8,0.3,1.4,0.8,1.8
				c0.5,0.5,1.2,0.7,2.1,0.7h6.2L54.3,12.2z"/>
			<path class="st1" d="M18.1,2.3c-0.8,0-1.5,0.3-2,0.8c-0.5,0.6-0.8,1.3-0.8,2.3V6v7.2c-0.9-0.7-1.8-1.2-2.6-1.5
				c-0.9-0.3-1.9-0.5-3-0.5c-1.4,0-2.7,0.3-3.8,0.8c-1.2,0.5-2.2,1.3-3,2.2c-0.9,0.9-1.5,2-2,3.3C0.2,18.9,0,20.3,0,21.7
				c0,1.5,0.2,2.9,0.7,4.2c0.5,1.3,1.2,2.4,2,3.3c0.9,0.9,1.9,1.7,3.1,2.2c1.2,0.5,2.5,0.8,3.9,0.8c1.2,0,2.2-0.2,3.1-0.5
				c0.9-0.3,1.8-0.9,2.7-1.7c0.5,1.3,1.4,2,2.7,2c0.5,0,1-0.1,1.4-0.3c0.4-0.2,0.7-0.5,0.9-0.9c0.2-0.3,0.3-0.6,0.3-0.9
				c0.1-0.3,0.1-0.8,0.1-1.5V6V5.4c0-0.9-0.3-1.7-0.8-2.3C19.6,2.6,18.9,2.3,18.1,2.3z M15,23.6c-0.3,0.6-0.6,1.1-1,1.5
				c-0.4,0.4-0.9,0.8-1.5,1c-0.6,0.3-1.2,0.4-1.8,0.4c-0.7,0-1.3-0.1-1.9-0.4c-0.6-0.3-1.1-0.6-1.5-1c-0.4-0.4-0.8-1-1-1.5
				C6,23,5.9,22.4,5.9,21.7c0-0.7,0.1-1.3,0.4-1.8c0.3-0.6,0.6-1.1,1-1.5c0.4-0.4,0.9-0.8,1.5-1C9.4,17.1,10,17,10.7,17
				c0.6,0,1.3,0.1,1.8,0.4c0.6,0.3,1.1,0.6,1.5,1c0.4,0.4,0.8,0.9,1,1.5c0.3,0.6,0.4,1.2,0.4,1.9C15.4,22.4,15.3,23,15,23.6z"/>
			<path class="st1" d="M75,27h-5.8l2.5-3.3l5.2-6.8c0.5-0.6,0.7-1.2,0.7-1.8c0-0.9-0.3-1.6-1-2.2c-0.6-0.5-1.3-0.7-2.2-0.8l0,0
				h-0.3h-0.7h-9.1c-0.8,0-1.5,0.2-2.1,0.7c-0.5,0.5-0.8,1.1-0.8,1.9c0,0.8,0.3,1.4,0.8,1.8c0.5,0.5,1.2,0.7,2.1,0.7h5.1l-2,2.6l0,0
				l-5.3,6.9c-0.3,0.3-0.5,0.6-0.6,0.9c-0.2,0.2-0.3,0.4-0.4,0.6c-0.1,0.2-0.1,0.3-0.2,0.5c0,0.2,0,0.3,0,0.5c0,0.5,0.1,1,0.4,1.5
				c0.3,0.5,0.7,0.8,1.1,1.1c0.3,0.1,0.6,0.2,0.8,0.3c0.2,0,0.5,0.1,0.8,0.1l0,0h0.1h0.9H75c0.8,0,1.5-0.2,2.1-0.7
				c0.5-0.5,0.8-1.1,0.8-1.9c0-0.8-0.3-1.4-0.8-1.8C76.5,27.3,75.8,27,75,27z"/>
			<path class="st1" d="M110.2,23.1c-0.4-0.7-0.9-1.2-1.6-1.4c-0.7-0.2-1.4-0.2-2.2,0.2c-0.3,0.1-0.5,0.3-0.7,0.5
				c-0.2,0.2-0.4,0.5-0.6,0.9c-0.3,0.6-0.7,1.1-1.1,1.5c-0.4,0.4-0.8,0.7-1.3,1c-1,0.5-2.1,0.6-3.2,0.3l6.5-7.9
				c0.6-0.7,0.9-1.4,1.1-1.9c0.1-0.5,0.1-1.1-0.2-1.6c-0.4-0.8-1-1.5-1.9-2.1c-0.8-0.5-1.7-0.9-2.8-1.1c-1-0.2-2.1-0.3-3.2-0.1
				c-1.1,0.1-2.2,0.5-3.2,1c-1.3,0.6-2.3,1.5-3.2,2.5c-0.9,1-1.5,2.2-1.9,3.5c-0.4,1.3-0.6,2.6-0.5,4c0.1,1.4,0.4,2.7,1.1,3.9
				c0.6,1.3,1.5,2.3,2.6,3.2c1.1,0.9,2.3,1.5,3.5,2c1.3,0.4,2.6,0.6,4,0.5c1.4-0.1,2.7-0.4,4-1c0.9-0.5,1.8-1,2.5-1.8
				c0.8-0.7,1.4-1.5,1.8-2.4c0.4-0.8,0.7-1.5,0.8-2.1C110.6,24.2,110.5,23.7,110.2,23.1z M96.2,23.2c-0.4-1.1-0.4-2.3,0-3.4
				c0.4-1.1,1.2-2,2.3-2.5c1-0.5,2-0.5,2.8-0.1L96.2,23.2z"/>
			<path class="st1" d="M54.8,27h-6.4l-4,5.2h10.4c0.8,0,1.5-0.2,2-0.7c0.5-0.5,0.8-1.1,0.8-1.9s-0.3-1.4-0.8-1.8
				C56.3,27.3,55.6,27,54.8,27z"/>
			<path class="st1" d="M84,2.4c-0.8,0-1.5,0.3-2,0.8c-0.5,0.6-0.8,1.3-0.8,2.3v0.6v22.3V29c0,0.9,0.3,1.7,0.8,2.3
				c0.5,0.6,1.2,0.9,2.1,0.9c0.9,0,1.6-0.3,2.1-0.9c0.5-0.6,0.7-1.4,0.7-2.5v-0.4V5.9V5.5c0-0.9-0.3-1.7-0.8-2.3
				C85.5,2.7,84.8,2.4,84,2.4z"/>
			<path class="st2" d="M63.7,4.9l-16.9,26c-1,1.5-2.9,1.9-4.4,0.9c-1.5-1-1.9-2.9-0.9-4.4c0.1-0.1,0.1-0.2,0.2-0.3L61.2,3.1
				c0.5-0.7,1.5-0.8,2.2-0.2C64,3.4,64.1,4.3,63.7,4.9z"/>
			<path class="st2" d="M48,1.6l-3.3,6.6c-0.6,1.2-2,1.6-3.1,1c-1.2-0.6-1.6-2-1-3.1c0.1-0.2,0.3-0.4,0.4-0.6l5.3-5.2
				c0.4-0.4,1.2-0.4,1.6,0C48.1,0.7,48.2,1.2,48,1.6z"/>
			<path class="st2" d="M75,3.6l-2,3.8c-0.4,0.7-1.3,1-2,0.6c-0.7-0.4-1-1.3-0.6-2c0.1-0.2,0.2-0.3,0.3-0.4l3.2-2.9
				c0.3-0.3,0.8-0.2,1,0.1C75.1,3,75.1,3.3,75,3.6z"/>
		</g>
		<g>
			<path class="st1" d="M116.6,21.5l2.7,6.3l2.7-6.3l2.7,6.3l2.4-6.3h0.8l-3.5,8.7h-0.6l-2.4-5.6l-2.4,5.6h-0.5l-3.8-8.7H116.6z"/>
			<path class="st1" d="M130,17.1c0.1,0,0.3,0,0.4,0.1c0.1,0,0.2,0.1,0.3,0.2c0.1,0.1,0.2,0.2,0.2,0.3c0.1,0.1,0.1,0.2,0.1,0.3
				c0,0.1,0,0.2-0.1,0.3c-0.1,0.1-0.1,0.2-0.2,0.3c-0.1,0.1-0.2,0.1-0.3,0.2s-0.2,0.1-0.4,0.1c-0.1,0-0.3,0-0.4-0.1
				s-0.2-0.1-0.3-0.2c-0.1-0.1-0.2-0.2-0.2-0.3c-0.1-0.1-0.1-0.2-0.1-0.3c0-0.1,0-0.2,0.1-0.3c0.1-0.1,0.1-0.2,0.2-0.3
				c0.1-0.1,0.2-0.1,0.3-0.2C129.7,17.1,129.9,17.1,130,17.1z M129.2,21.8l1.2-0.5h0.5v8.8h-1.7V21.8z"/>
			<path class="st1" d="M134.7,25l4.3-3.5h1.1l-3.9,3.1l4.8,5.5h-2.2l-4.1-4.7v4.7H133V17.5l1.2-0.5h0.5V25z"/>
			<path class="st1" d="M142.4,17.1c0.1,0,0.3,0,0.4,0.1c0.1,0,0.2,0.1,0.3,0.2c0.1,0.1,0.2,0.2,0.2,0.3c0.1,0.1,0.1,0.2,0.1,0.3
				c0,0.1,0,0.2-0.1,0.3c-0.1,0.1-0.1,0.2-0.2,0.3c-0.1,0.1-0.2,0.1-0.3,0.2s-0.2,0.1-0.4,0.1c-0.1,0-0.3,0-0.4-0.1
				s-0.2-0.1-0.3-0.2c-0.1-0.1-0.2-0.2-0.2-0.3c-0.1-0.1-0.1-0.2-0.1-0.3c0-0.1,0-0.2,0.1-0.3c0.1-0.1,0.1-0.2,0.2-0.3
				c0.1-0.1,0.2-0.1,0.3-0.2C142.1,17.1,142.2,17.1,142.4,17.1z M141.5,21.8l1.2-0.5h0.5v8.8h-1.7V21.8z"/>
		</g>
	</g>
</g>
</svg>
