<?xml version="1.0" encoding="utf-8"?>
<!-- Generator: Adobe Illustrator 22.1.0, SVG Export Plug-In . SVG Version: 6.00 Build 0)  -->
<svg version="1.1" id="Layer_1" xmlns="http://www.w3.org/2000/svg" xmlns:xlink="http://www.w3.org/1999/xlink" x="0px" y="0px"
	 viewBox="0 0 200 67" style="enable-background:new 0 0 200 67;" xml:space="preserve">
<style type="text/css">
	.st0{fill:#616867;}
	.st1{fill:#8E9B99;}
</style>
<g>
	<path class="st0" d="M68.3,29.2c0.4,0.8,0.5,1.6,0.5,2.4c0,1.7-0.6,3.1-1.8,4.3c-1.2,1.2-2.6,1.8-4.3,1.8c-0.7,0-1.3-0.1-1.6-0.2
		c-0.4-0.2-1.1-0.5-2-1.1c-0.8-0.5-1.4-0.7-2-0.7c-0.8,0-1.4,0.4-1.7,1.1c-0.3,0.7-0.5,1.9-0.5,3.6v15.6v1.1
		c-0.1,1.7-0.5,3.1-1.4,4.1c-0.9,1-2.1,1.5-3.6,1.5c-1.5,0-2.8-0.5-3.7-1.6c-0.9-1-1.4-2.4-1.4-4.1v-1.1V33c0-0.8,0-1.4,0-1.9
		c0-0.5,0-0.9,0.1-1.2c0-0.3,0.1-0.6,0.2-0.9c0.1-0.3,0.2-0.5,0.4-0.8c1-1.8,2.5-2.7,4.3-2.7c2.1,0,3.6,1,4.6,3
		c2.4-2.1,5-3.2,7.8-3.2c0.9,0,1.8,0.2,2.6,0.5c0.8,0.3,1.5,0.8,2.1,1.3C67.5,27.8,67.9,28.4,68.3,29.2z M98.2,26.6H80
		c-1.5,0-2.8,0.4-3.7,1.3c-1,0.8-1.4,2-1.4,3.4c0,1.4,0.5,2.5,1.4,3.3c0.9,0.8,2.2,1.3,3.8,1.3h11.1L98.2,26.6z M36.8,10.4
		c0.9,1,1.4,2.4,1.4,4.1v1.1v40.2c0,1.2-0.1,2.1-0.2,2.7c-0.1,0.6-0.3,1.2-0.6,1.7c-0.4,0.7-1,1.3-1.7,1.6c-0.7,0.4-1.5,0.6-2.4,0.6
		c-2.3,0-3.9-1.2-4.8-3.6c-1.6,1.4-3.2,2.4-4.8,3c-1.6,0.6-3.4,0.9-5.6,0.9c-2.5,0-4.9-0.5-7-1.4c-2.2-0.9-4-2.2-5.6-3.9
		c-1.5-1.7-2.8-3.7-3.7-6c-0.9-2.3-1.3-4.8-1.3-7.5c0-2.6,0.4-5.1,1.3-7.4c0.9-2.3,2.1-4.3,3.7-5.9c1.5-1.7,3.4-3,5.5-4
		c2.1-1,4.4-1.4,6.9-1.4c2,0,3.8,0.3,5.4,0.8c1.6,0.6,3.2,1.4,4.8,2.6v-13v-1.1c0-1.7,0.5-3.1,1.4-4.1c0.9-1,2.1-1.5,3.6-1.5
		C34.6,8.9,35.9,9.4,36.8,10.4z M28.3,43.9c0-1.2-0.2-2.3-0.7-3.3c-0.5-1-1.1-2-1.8-2.7C25,37,24.1,36.4,23.1,36
		c-1-0.5-2.1-0.7-3.3-0.7c-1.2,0-2.3,0.2-3.3,0.7c-1,0.5-2,1.1-2.7,1.8c-0.8,0.8-1.4,1.7-1.9,2.7c-0.5,1-0.7,2.1-0.7,3.3
		c0,1.2,0.2,2.4,0.7,3.4c0.5,1,1.1,2,1.8,2.8c0.8,0.8,1.7,1.4,2.7,1.9c1,0.5,2.2,0.7,3.4,0.7c1.2,0,2.3-0.2,3.3-0.7
		c1-0.5,1.9-1.1,2.7-1.9c0.8-0.8,1.4-1.7,1.8-2.8C28.1,46.2,28.3,45.1,28.3,43.9z M135.5,53.4H125l4.6-5.9l9.4-12.2
		c0.9-1.2,1.3-2.2,1.3-3.2c0-1.6-0.6-2.9-1.7-3.9c-1-0.9-2.3-1.3-3.9-1.4l0,0H134h-1.3h-16.3c-1.5,0-2.8,0.4-3.7,1.3
		c-1,0.8-1.4,2-1.4,3.4c0,1.4,0.5,2.5,1.4,3.3c0.9,0.8,2.2,1.3,3.8,1.3h9.2l-3.6,4.7l0,0L112.5,53c-0.5,0.6-0.8,1.1-1.1,1.6
		c-0.3,0.4-0.5,0.8-0.7,1.1c-0.2,0.3-0.3,0.6-0.3,0.9c0,0.3-0.1,0.6-0.1,1c0,0.9,0.3,1.7,0.8,2.6c0.5,0.9,1.2,1.5,2,1.9
		c0.5,0.3,1,0.4,1.4,0.5c0.4,0.1,0.9,0.1,1.5,0.1l0,0h0.3h1.7h17.5c1.5,0,2.8-0.4,3.7-1.3c0.9-0.9,1.4-2,1.4-3.4s-0.5-2.5-1.4-3.3
		C138.3,53.9,137,53.4,135.5,53.4z M199.3,49.4c-0.1,1.1-0.6,2.3-1.4,3.7c-0.8,1.5-1.9,3-3.3,4.3c-1.4,1.3-2.9,2.3-4.5,3.2
		c-2.3,1.1-4.7,1.8-7.1,1.9c-2.5,0.1-4.9-0.2-7.2-1c-2.3-0.8-4.4-2-6.4-3.5c-1.9-1.6-3.5-3.5-4.6-5.8c-1.1-2.3-1.8-4.6-1.9-7.1
		c-0.1-2.5,0.2-4.8,1-7.1c0.8-2.3,1.9-4.4,3.5-6.2c1.6-1.9,3.5-3.4,5.7-4.5c1.8-0.9,3.7-1.5,5.8-1.7c2-0.2,4-0.2,5.8,0.2
		c1.8,0.4,3.5,1.1,5,2c1.5,1,2.6,2.2,3.3,3.7c0.5,1,0.6,2,0.4,2.9c-0.2,0.9-0.9,2.1-1.9,3.4l-11.8,14.2c2,0.5,4,0.3,5.8-0.6
		c0.9-0.5,1.7-1,2.4-1.8c0.7-0.7,1.3-1.6,1.9-2.8c0.3-0.7,0.7-1.2,1-1.6c0.4-0.4,0.8-0.7,1.3-0.9c1.3-0.7,2.6-0.8,3.9-0.3
		c1.3,0.4,2.3,1.3,2.9,2.6C199.3,47.4,199.5,48.4,199.3,49.4z M182.7,35.7c-1.5-0.9-3.1-0.8-5,0.1c-2,1-3.4,2.5-4.2,4.5
		c-0.8,2-0.8,4.1,0,6.1L182.7,35.7z M99.1,53.4H87.5l-7.1,9.3h18.7c1.5,0,2.7-0.4,3.7-1.3c0.9-0.9,1.4-2,1.4-3.4s-0.5-2.5-1.4-3.3
		C101.9,53.9,100.7,53.4,99.1,53.4z M151.7,9.1c-1.5,0-2.7,0.5-3.7,1.5c-0.9,1-1.4,2.4-1.4,4.1v1.1v40V57c0,1.7,0.5,3,1.4,4.1
		c0.9,1,2.2,1.6,3.7,1.6c1.6,0,2.9-0.5,3.8-1.6c0.9-1.1,1.3-2.6,1.3-4.5v-0.7V15.4v-0.7c0-1.7-0.5-3-1.4-4.1
		C154.5,9.6,153.2,9.1,151.7,9.1z"/>
	<path class="st1" d="M115.1,13.7L84.8,60.4c-1.7,2.6-5.2,3.4-7.9,1.7c-2.6-1.7-3.4-5.2-1.7-7.9c0.1-0.2,0.2-0.3,0.4-0.5l35.1-43.3
		c1-1.2,2.7-1.4,3.9-0.4C115.7,10.9,115.9,12.5,115.1,13.7z"/>
	<path class="st1" d="M86.9,7.7l-6,11.9c-1,2.1-3.6,2.9-5.7,1.9c-2.1-1-2.9-3.6-1.9-5.7c0.2-0.4,0.5-0.8,0.8-1.1l9.5-9.4
		c0.8-0.8,2.1-0.8,2.9,0C87.2,6,87.3,7,86.9,7.7z"/>
	<path class="st1" d="M135.5,11.2l-3.6,6.8c-0.7,1.3-2.3,1.8-3.6,1.1c-1.3-0.7-1.8-2.3-1.1-3.6c0.2-0.3,0.4-0.5,0.6-0.7l5.8-5.2
		c0.5-0.5,1.4-0.4,1.8,0.1C135.7,10.1,135.7,10.7,135.5,11.2z"/>
</g>
</svg>
